<svg width="398" height="653" viewBox="0 0 398 653" fill="none" xmlns="http://www.w3.org/2000/svg">
<path d="M397.068 29.4338C396.284 25.0685 394.343 20.9935 391.448 17.6338C387.331 12.9474 382.33 9.118 376.733 6.36416C371.135 3.61032 365.05 1.98598 358.825 1.58391C352.6 1.18183 346.356 2.00988 340.451 4.02079C334.546 6.0317 329.094 9.18607 324.408 13.3038L324.008 13.6638C318.414 8.24181 311.596 4.24827 304.131 2.02165C296.666 -0.204971 288.774 -0.599047 281.124 0.872833C273.474 2.34471 266.292 5.63916 260.186 10.477C254.08 15.3147 249.23 21.5533 246.048 28.6638C243.124 35.1706 241.783 42.2778 242.136 49.4028C242.489 56.5278 244.525 63.4677 248.078 69.6538C249.672 72.443 251.545 75.0632 253.668 77.4738C255.858 79.9738 314.978 145.744 315.568 146.404C315.639 146.486 315.726 146.552 315.824 146.596C315.923 146.641 316.03 146.664 316.138 146.664C316.158 146.664 316.188 146.654 316.218 146.654C316.26 146.653 316.301 146.643 316.338 146.624C316.533 146.576 316.702 146.454 316.808 146.284L317.118 145.774L317.488 145.144L322.958 136.004C338.128 110.654 358.578 86.7338 383.748 64.9138C385.369 63.5065 386.87 61.968 388.238 60.3138C393.623 53.8752 396.873 45.9214 397.538 37.5538C397.728 34.8381 397.57 32.1093 397.068 29.4338Z" fill="#D3C9BF"/>
<path d="M125.831 543.59L136.965 507.33C123.569 492.586 106.776 481.335 88.0444 474.554C106.345 504.872 88.6117 544.424 96.0014 579.058C98.389 589.843 103.173 599.951 109.998 608.636C116.824 617.32 125.516 624.357 135.431 629.225L152.327 650.16C161.185 634.685 166.582 617.473 168.147 599.711C169.712 581.949 167.408 564.058 161.394 547.272C157.926 537.889 153.291 528.979 147.597 520.754C137.557 532.558 125.831 543.59 125.831 543.59Z" fill="#F2F2F2"/>
<path d="M64.6098 548.223L58.4037 510.803C39.8378 503.581 19.7896 501 0 503.285C29.9014 522.26 31.6684 565.568 53.7288 593.272C60.6754 601.86 69.4655 608.774 79.4477 613.503C89.4299 618.232 100.348 620.653 111.394 620.589L135.853 631.791C136.879 613.99 134.034 596.177 127.513 579.581C120.992 562.985 110.951 548 98.0818 535.659C90.7933 528.806 82.671 522.899 73.9065 518.077C70.1842 533.119 64.6098 548.223 64.6098 548.223Z" fill="#F2F2F2"/>
<path d="M186.842 302.832L183.768 309.982L188.792 335.378L240.047 328.251L239.638 297.285L238.609 290.502L186.842 302.832Z" fill="#FFB6B6"/>
<path d="M160.361 631.961H171.669L177.05 588.345H160.361V631.961Z" fill="#FFB6B6"/>
<path d="M191.91 642.742L174.74 630.88V623.134L172.744 623.259L160.36 623.996L156.675 624.212L154.395 651.554H162.504L163.944 643.899L167.653 651.554H189.166C190.196 651.553 191.199 651.223 192.029 650.612C192.859 650.001 193.472 649.141 193.778 648.157C194.084 647.173 194.069 646.117 193.732 645.143C193.396 644.169 192.758 643.328 191.91 642.742Z" fill="#2F2E41"/>
<path d="M223.879 631.961H235.187L241.839 567.748L220.591 566.478L223.879 631.961Z" fill="#FFB6B6"/>
<path d="M255.429 642.742L238.259 630.88V623.134L236.082 623.259L223.482 624.019L220.194 624.212L217.914 651.554H226.023L227.463 643.899L231.171 651.554H252.684C253.715 651.553 254.718 651.223 255.548 650.612C256.378 650.001 256.99 649.141 257.297 648.157C257.603 647.173 257.587 646.117 257.251 645.143C256.915 644.169 256.277 643.328 255.429 642.742Z" fill="#2F2E41"/>
<path d="M155.561 594.349H155.605L157.78 523.43C156.372 520.715 155.658 517.695 155.701 514.637C155.743 511.58 156.541 508.58 158.023 505.906L158.334 505.342L157.527 501.6C156.49 496.792 156.966 491.781 158.889 487.255L160.918 421.101C153.67 374.127 188.212 343.492 188.212 343.492L185.038 318.871L240.908 320.141L239.958 343.492L251.067 381.66C256.913 438.62 257.261 494.422 251.28 548.891C251.268 549.048 251.291 549.205 251.348 549.351C251.955 551.196 252.169 553.148 251.975 555.081C251.782 557.014 251.186 558.885 250.225 560.573C249.976 561.004 249.805 561.475 249.719 561.965C248.487 571.514 248.327 559.435 246.694 568.9L247.012 569.06C248.156 569.455 248.646 571.04 248.108 572.6C247.569 574.16 246.205 575.105 245.061 574.71L215.195 575.029C214.051 574.635 213.56 573.05 214.098 571.49C214.637 569.93 216.001 568.985 217.145 569.38L219.003 570.32L215.894 560.149L214.804 559.131C214.282 558.644 213.877 558.045 213.619 557.379C213.362 556.713 213.258 555.997 213.316 555.285C213.374 554.573 213.592 553.884 213.954 553.268C214.316 552.652 214.813 552.126 215.407 551.73L216.31 522.202L216.75 509.702L215.844 495.522L211.655 431.736L195.8 510.174L179.604 595.138C179.982 595.479 180.266 595.911 180.429 596.393C180.591 596.875 180.627 597.391 180.533 597.891C180.384 598.589 179.997 599.214 179.438 599.659C178.878 600.103 178.182 600.339 177.468 600.326H155.482C155.021 600.325 154.566 600.218 154.153 600.013C153.741 599.808 153.381 599.511 153.101 599.144C152.822 598.777 152.632 598.351 152.544 597.898C152.457 597.445 152.475 596.979 152.598 596.534C152.784 595.895 153.174 595.335 153.71 594.94C154.245 594.545 154.896 594.337 155.561 594.349Z" fill="#2F2E41"/>
<path d="M175.112 182.158C175.111 186.686 176.22 191.145 178.344 195.144C180.468 199.143 183.541 202.559 187.294 205.093C191.046 207.627 195.364 209.201 199.866 209.677C204.369 210.153 208.92 209.516 213.119 207.823C217.318 206.129 221.038 203.431 223.951 199.965C226.864 196.498 228.881 192.37 229.826 187.941C230.771 183.513 230.615 178.921 229.371 174.567C228.126 170.214 225.832 166.232 222.69 162.972L222.557 162.839C222.336 162.607 222.115 162.375 221.883 162.153C221.881 162.153 221.88 162.153 221.878 162.153C221.877 162.152 221.876 162.151 221.875 162.15C221.874 162.149 221.873 162.148 221.872 162.146C221.872 162.145 221.871 162.144 221.872 162.142C221.554 161.911 221.261 161.647 220.997 161.357C217.263 156.139 213.029 151.763 202.774 154.497C188.009 158.432 175.112 166.878 175.112 182.158Z" fill="#2F2E41"/>
<path d="M327.063 170.317C327.126 171.797 326.864 173.272 326.294 174.64C325.725 176.007 324.863 177.233 323.768 178.232C322.674 179.23 321.374 179.976 319.96 180.417C318.546 180.859 317.052 180.985 315.584 180.787L244.247 239.333L233.35 220.181L306.899 168.654C307.396 166.21 308.771 164.033 310.766 162.536C312.76 161.038 315.234 160.324 317.72 160.529C320.205 160.734 322.529 161.844 324.251 163.647C325.973 165.451 326.974 167.824 327.063 170.317V170.317Z" fill="#FFB6B6"/>
<path d="M214.124 256.599C214.124 256.599 216.448 261.421 225.487 254.572C232.723 249.088 267.268 225.43 274.941 215.429C276.551 216.157 278.358 216.328 280.076 215.916C281.794 215.504 283.326 214.532 284.431 213.153L265.557 194.982C259.635 195.382 259.574 199.345 260.081 201.62L244.913 207.648L205.407 230.345L212.383 253.144L214.124 256.599Z" fill="#E6E6E6"/>
<path d="M209.589 211.754C222.399 211.754 232.784 201.369 232.784 188.558C232.784 175.748 222.399 165.363 209.589 165.363C196.779 165.363 186.394 175.748 186.394 188.558C186.394 201.369 196.779 211.754 209.589 211.754Z" fill="#FFB7B7"/>
<path d="M241.23 303.612L241.469 290.673C242.41 289.38 250.303 278.096 248.534 266.823C247.706 261.516 244.825 257.059 239.994 253.589L236.876 246.331L232.26 235.603L218.753 227.562L216.882 223.752L215.34 220.588L196.707 218.728L192.114 224.908L192.024 224.92C187.803 225.879 183.838 227.735 180.399 230.363C176.624 233.228 173.563 236.928 171.458 241.175C169.352 245.421 168.26 250.097 168.265 254.836L168.378 269.874L168.401 272.029L168.412 274.115L180.036 305.404L180.479 306.618L185.038 318.877L184.255 320.17C183.413 321.576 183.102 323.238 183.378 324.855C183.655 326.471 184.501 327.935 185.763 328.981L186.308 336.648L187.295 336.375L192.908 334.81L235.367 322.959C236.966 322.513 238.378 321.562 239.393 320.249C239.43 320.202 239.464 320.152 239.495 320.102C239.663 319.893 239.811 319.669 239.938 319.432C240.902 316.994 241.004 316.336 241.015 315.656C242.424 314.05 243.239 312.008 243.321 309.873C243.404 307.738 242.75 305.64 241.469 303.93L241.23 303.612Z" fill="#E6E6E6"/>
<path d="M185.314 194.639C185.524 194.606 185.734 194.562 185.945 194.528C189.563 193.887 193.181 193.256 196.788 192.603L197.12 184.427L201.49 191.751C211.46 195.06 220.787 193.19 229.561 189.063C232.456 187.689 235.264 186.141 237.971 184.427C238.862 170.598 233.271 161.745 222.867 162.673C222.487 162.707 222.215 162.319 221.883 162.153C221.881 162.153 221.88 162.153 221.878 162.153C221.877 162.152 221.876 162.151 221.875 162.15C221.874 162.149 221.873 162.148 221.872 162.147C221.872 162.145 221.872 162.144 221.872 162.142C221.307 161.877 220.732 161.622 220.156 161.39C215.652 159.63 210.74 159.184 205.993 160.104C201.245 161.025 196.856 163.274 193.336 166.59C186.255 173.351 183.068 184.515 185.314 194.639Z" fill="#2F2E41"/>
<path d="M200.427 155.164C200.195 155.963 199.736 156.677 199.106 157.221C198.476 157.764 197.702 158.113 196.877 158.226C193.759 162.081 190.186 166.164 185.299 166.935C183.901 167.232 182.444 166.98 181.227 166.232C181.079 166.139 180.942 166.028 180.819 165.903C179.662 164.803 179.572 162.592 180.944 161.764C174.797 164.202 171.202 170.836 170.295 177.38C169.388 183.923 170.646 190.535 171.474 197.09C172.302 203.645 172.665 210.528 170.091 216.618C167.051 223.797 160.066 228.957 152.445 230.601C151.764 230.749 151.084 230.874 150.392 230.953C149.932 227.84 148.777 224.871 147.013 222.266C147.479 225.281 147.203 228.364 146.207 231.248C140.477 231.168 134.849 229.714 129.798 227.006C122.891 223.366 117.141 217.809 112.435 211.583C120.544 217.333 131.748 219.488 140.571 214.94C148.464 210.857 153.125 202.284 155.167 193.642C157.208 184.989 148.628 174.388 149.558 165.554C150.499 156.719 161.154 149.221 166.983 142.519C170.703 138.243 176.192 135.079 181.851 135.612C183.762 135.794 185.612 136.386 187.273 137.348C188.935 138.309 190.37 139.617 191.481 141.183C192.591 142.749 193.352 144.536 193.709 146.422C194.067 148.308 194.015 150.249 193.555 152.113C195.165 149.833 199.327 150.332 200.359 152.929C200.636 153.645 200.66 154.433 200.427 155.164Z" fill="#2F2E41"/>
<path d="M185.945 194.528C185.945 194.528 192.816 168.881 222.27 162.961C222.303 162.95 222.414 162.906 222.557 162.839C222.646 162.784 222.757 162.729 222.867 162.673C222.535 162.485 222.215 162.319 221.883 162.153C221.881 162.153 221.88 162.153 221.878 162.152C221.877 162.152 221.876 162.151 221.875 162.15C221.874 162.149 221.873 162.148 221.872 162.146C221.872 162.145 221.871 162.144 221.872 162.142C221.584 161.877 221.296 161.611 220.997 161.357L220.156 161.39C220.156 161.39 190.603 156.709 185.945 194.528Z" fill="#FD6584"/>
<path d="M259.865 316.751C259.601 316.084 259.159 315.502 258.587 315.068C258.015 314.635 257.335 314.368 256.621 314.295C255.19 314.171 253.75 314.379 252.413 314.904C247.167 316.652 242.456 319.714 238.73 323.8L238.794 326.396C237.044 328.628 236.11 331.391 236.148 334.226C236.185 337.062 237.19 339.799 238.998 341.985C240.018 343.242 241.411 344.144 242.976 344.56C243.759 344.755 244.579 344.735 245.351 344.503C246.123 344.27 246.818 343.833 247.362 343.238C248.93 341.329 248.172 338.452 247.019 336.267C245.007 332.465 242.063 329.237 238.462 326.884C244.475 326.731 250.381 325.263 255.765 322.584C256.958 322.062 258.034 321.306 258.931 320.362C259.374 319.885 259.691 319.305 259.854 318.675C260.017 318.044 260.021 317.383 259.865 316.751Z" fill="#2F2E41"/>
<path d="M367.674 469.506L356.45 469.95C353.643 475.14 352.146 480.935 352.087 486.835C358.765 478.748 371.557 479.825 380.51 474.364C383.29 472.64 385.646 470.312 387.403 467.553C389.161 464.794 390.275 461.675 390.663 458.427L394.856 451.653C389.663 450.695 384.324 450.874 379.207 452.178C374.09 453.483 369.317 455.881 365.216 459.207C362.934 461.097 360.899 463.265 359.159 465.663C363.441 467.311 367.674 469.506 367.674 469.506Z" fill="#F2F2F2"/>
<path d="M311.674 591.506L300.45 591.95C297.643 597.14 296.146 602.935 296.087 608.835C302.765 600.748 315.557 601.825 324.51 596.364C327.29 594.64 329.646 592.312 331.403 589.553C333.161 586.794 334.275 583.675 334.663 580.427L338.856 573.653C333.663 572.695 328.324 572.874 323.207 574.178C318.09 575.483 313.317 577.881 309.216 581.207C306.934 583.097 304.899 585.265 303.159 587.663C307.441 589.311 311.674 591.506 311.674 591.506Z" fill="#F2F2F2"/>
<path d="M47.1358 418.77L37.6219 412.797C32.3751 415.495 27.8661 419.432 24.4863 424.268C34.5645 421.365 44.512 429.478 54.9853 430.028C58.2531 430.175 61.512 429.584 64.5205 428.3C67.529 427.016 70.21 425.071 72.3647 422.61L79.6511 419.388C75.9064 415.664 71.3991 412.797 66.4397 410.984C61.4803 409.17 56.1867 408.453 50.9236 408.883C47.9733 409.153 45.0689 409.793 42.2787 410.789C44.8823 414.568 47.1358 418.77 47.1358 418.77Z" fill="#F2F2F2"/>
<path d="M327.471 158.265C327.247 156.762 328.878 155.691 329.488 154.299C329.88 153.057 329.879 151.724 329.487 150.482C329.135 148.795 328.729 147.005 327.508 145.789C326.259 144.74 324.722 144.095 323.098 143.94C319.152 143.251 315.123 143.18 311.155 143.729L314.165 143.912C312.27 143.791 310.368 144.012 308.551 144.564C307.644 144.85 306.825 145.359 306.166 146.044C305.508 146.73 305.033 147.57 304.784 148.487C304.411 150.344 305.682 152.521 307.57 152.68C306.627 152.488 305.647 152.677 304.843 153.205C304.039 153.734 303.477 154.559 303.279 155.501C303.082 156.443 303.265 157.424 303.79 158.231C304.314 159.038 305.136 159.605 306.077 159.807C305.642 160.981 304.35 161.544 303.244 162.129C302.137 162.715 300.973 163.72 301.16 164.957C301.407 166.594 303.594 166.93 305.248 166.858L323.25 166.073C324.801 166.128 326.341 165.808 327.741 165.14C329.075 164.362 330.006 162.656 329.39 161.24C328.914 160.145 327.647 159.446 327.471 158.265Z" fill="#3F3D56"/>
<path d="M118.679 318.606C116.205 329.476 115.029 341.799 121.628 351.526C124.433 355.699 128.55 358.817 133.326 360.388C138.161 361.821 143.259 362.134 148.233 361.303C159.488 359.744 169.491 353.881 180.561 351.605C185.446 350.601 190.63 350.269 195.333 352.202C198.856 353.65 202.567 356.562 202.584 360.717C202.602 364.982 198.897 367.814 195.212 369.125C190.295 370.875 185.186 370.198 180.086 369.977C174.593 369.74 168.993 370.236 164.43 373.6C160.506 376.663 157.496 380.743 155.729 385.397C153.435 390.963 152.504 396.948 151.038 402.755C149.727 407.976 147.873 413.046 145.506 417.881C140.861 427.357 134.349 435.797 126.362 442.695C122.423 446.085 117.636 449.539 112.256 449.85C108.107 450.09 103.062 448.346 101.463 444.143C100.869 442.328 100.927 440.363 101.627 438.587C102.328 436.811 103.627 435.335 105.3 434.414C108.856 432.619 112.729 435.179 113.877 438.693C114.178 439.503 114.284 440.372 114.184 441.231C114.085 442.089 113.784 442.912 113.306 443.632C112.228 445.24 114.826 446.743 115.897 445.146C118.384 441.438 117.084 436.451 114.038 433.48C112.552 431.965 110.566 431.043 108.45 430.885C106.334 430.728 104.233 431.345 102.539 432.623C100.779 433.963 99.4488 435.788 98.711 437.873C97.9733 439.959 97.8604 442.214 98.3861 444.363C99.6654 448.979 104.202 451.916 108.732 452.643C114.326 453.542 119.71 451.343 124.225 448.167C128.756 444.896 132.875 441.091 136.494 436.834C143.852 428.372 149.383 418.483 152.741 407.785C156.043 397.204 156.283 383.225 166.095 376.079C171.144 372.402 177.33 372.81 183.25 373.148C188.475 373.446 193.573 373.392 198.367 371.026C202.325 369.072 205.519 365.467 205.585 360.873C205.651 356.236 202.359 352.508 198.48 350.395C188.232 344.814 175.926 349.315 165.858 353.044C155.734 356.793 144.174 361.194 133.415 357.248C128.449 355.319 124.451 351.499 122.297 346.626C119.691 341.1 119.321 334.831 119.923 328.835C120.277 325.66 120.828 322.51 121.572 319.404C122 317.524 119.108 316.721 118.679 318.606L118.679 318.606Z" fill="#3F3D56"/>
<path d="M168.365 379.095C167.444 377.935 166.788 376.587 166.444 375.146C166.1 373.705 166.076 372.207 166.373 370.756C166.671 369.304 167.283 367.936 168.167 366.748C169.051 365.559 170.184 364.578 171.488 363.875L156.239 318.73L168.691 270.889L188.769 279.966L176.379 316.051L185.649 368.576C186.685 370.845 186.853 373.415 186.122 375.799C185.39 378.183 183.809 380.216 181.679 381.512C179.548 382.809 177.016 383.279 174.562 382.833C172.109 382.388 169.903 381.057 168.365 379.094L168.365 379.095Z" fill="#FFB6B6"/>
<path d="M186.744 231.47C186.744 231.47 182.028 228.938 178.748 239.794C176.122 248.486 158.254 295.675 157.932 308.276C156.202 308.635 154.64 309.559 153.493 310.903C152.347 312.247 151.679 313.934 151.597 315.699L177.549 319.291C182.103 315.483 179.821 312.243 178.072 310.701L186.911 295.729L205.386 255.309L190.185 233.24L186.744 231.47Z" fill="#E6E6E6"/>
<path d="M137.068 288.114C134.101 298.019 129.629 307.408 123.808 315.954C122.368 318.054 120.855 320.101 119.268 322.094C118.035 319.853 116.541 317.765 114.818 315.874C108.768 309.224 100.658 304.874 92.788 300.514C84.918 296.154 76.928 291.474 71.368 284.404C68.873 281.221 67.0865 277.543 66.128 273.614C64.868 268.284 65.348 262.724 68.458 258.274C72.978 251.804 81.988 249.524 89.648 251.394C97.318 253.264 103.738 258.594 108.718 264.714C107.088 257.194 115.018 249.934 122.688 250.594C130.358 251.264 136.508 257.964 138.548 265.384C140.598 272.794 139.268 280.734 137.068 288.114Z" fill="#D3C9BF"/>
<path d="M285.334 12.9899C281.27 13.6535 277.383 15.1359 273.909 17.3472C270.435 19.5585 267.447 22.4525 265.125 25.8537C262.772 29.3653 261.205 33.3432 260.53 37.5159C259.854 41.6886 260.087 45.958 261.212 50.0325C262.476 54.7572 264.876 59.1009 268.204 62.6847C269.522 64.1011 271.64 61.9761 270.325 60.5634C267.704 57.6879 265.724 54.289 264.513 50.5913C263.303 46.8935 262.891 42.9811 263.305 39.1124C263.75 35.3944 264.981 31.8136 266.917 28.6083C268.853 25.4029 271.449 22.6464 274.533 20.5219C277.989 18.0998 281.959 16.5119 286.131 15.8828C288.034 15.5963 287.225 12.7051 285.334 12.9899V12.9899Z" fill="#3F3D56"/>
<g opacity="0.2">
<path opacity="0.2" d="M388.238 60.3137C386.87 61.9679 385.369 63.5065 383.748 64.9137C358.578 86.7337 338.128 110.654 322.958 136.004L317.488 145.144L317.118 145.774C315.829 144.803 314.705 143.632 313.788 142.304C310.288 137.214 310.268 130.524 311.128 124.404C313.729 106.054 323.064 89.3278 337.318 77.4813C351.571 65.6348 369.722 59.5153 388.238 60.3137Z" fill="black"/>
</g>
<g opacity="0.2">
<path opacity="0.2" d="M123.808 315.954C122.368 318.054 120.855 320.1 119.268 322.094C118.035 319.853 116.541 317.765 114.818 315.874C108.768 309.224 100.658 304.874 92.7879 300.514C84.9179 296.154 76.9279 291.474 71.3679 284.404C68.8729 281.221 67.0864 277.542 66.1279 273.614C83.8198 276.066 100.076 284.691 112.028 297.964C116.813 303.352 120.782 309.413 123.808 315.954Z" fill="black"/>
</g>
<path d="M315.558 145.554C317.767 145.554 319.558 143.763 319.558 141.554C319.558 139.345 317.767 137.554 315.558 137.554C313.349 137.554 311.558 139.345 311.558 141.554C311.558 143.763 313.349 145.554 315.558 145.554Z" fill="#3F3D56"/>
<line x1="357.969" y1="652.456" x2="24.9691" y2="650.419" stroke="black"/>
</svg>
