<svg width="230" height="376" viewBox="0 0 230 376" fill="none" xmlns="http://www.w3.org/2000/svg">
<g filter="url(#filter0_d_12_1853)">
<path d="M221.078 65.9373C218.58 63.5407 216.025 50.1758 212.836 48.819C215.219 54.0876 213.489 55.4825 213.476 61.2646C213.506 64.5479 213.123 67.8219 212.335 71.0094H158.311V28.8476C158.31 25.0592 159.057 21.308 160.506 17.808C161.956 14.308 164.081 11.1278 166.76 8.44901C169.438 5.77024 172.618 3.64534 176.118 2.19565C179.618 0.745961 183.37 -0.000111617 187.158 1.25249e-08C188.604 0.0282244 190.041 0.238525 191.434 0.625977C196.078 1.87967 200.31 4.3324 203.706 7.73813C207.103 11.1439 209.544 15.3828 210.785 20.0298C214.903 35.0834 221.453 60.1413 221.078 65.9373Z" fill="#2F2E41"/>
<path d="M161.481 117.804L161.507 84.9414L142.19 86.6677L149.007 107.394L145.816 159.491C144.269 159.838 142.856 160.628 141.75 161.764C140.643 162.901 139.892 164.335 139.586 165.891C139.281 167.447 139.435 169.059 140.029 170.529C140.624 171.999 141.633 173.265 142.935 174.171C144.236 175.078 145.773 175.586 147.358 175.634C148.944 175.682 150.509 175.268 151.863 174.442C153.217 173.616 154.301 172.414 154.983 170.982C155.666 169.55 155.917 167.951 155.706 166.379L161.481 117.804Z" fill="#FFB6B6"/>
<path d="M199.497 352.642L207.301 352.641L211.014 322.539H199.495L199.497 352.642Z" fill="#FFB6B6"/>
<path d="M196.854 348.792L209.191 348.055V353.341L220.92 361.441C221.499 361.841 221.936 362.416 222.165 363.082C222.395 363.747 222.406 364.469 222.196 365.141C221.987 365.813 221.568 366.401 221.001 366.818C220.433 367.235 219.748 367.46 219.044 367.46H204.356L201.824 362.232L200.836 367.46H195.298L196.854 348.792Z" fill="#2F2E41"/>
<path d="M154.371 352.642L162.176 352.641L165.888 322.539H154.37L154.371 352.642Z" fill="#FFB6B6"/>
<path d="M151.728 348.792L164.065 348.055V353.341L175.794 361.441C176.374 361.841 176.81 362.416 177.04 363.082C177.269 363.747 177.28 364.469 177.071 365.141C176.861 365.813 176.442 366.401 175.875 366.818C175.308 367.235 174.622 367.46 173.918 367.46H159.231L156.699 362.232L155.71 367.46H150.173L151.728 348.792Z" fill="#2F2E41"/>
<path d="M192.547 49.4529L176.38 49.7699L164.967 61.8161L155.818 63.158C151.679 63.765 147.874 65.7742 145.039 68.8498C142.204 71.9253 140.51 75.8808 140.241 80.0552L141.826 88.7617H151.336L156.838 121.064C154.699 126.516 154.553 130.818 158.944 132.508L172.576 158.186L212.835 140.117C214.877 136.607 215.531 133.081 213.444 129.652L216.322 80.2025H226C226 70.9538 222.871 63.1568 213.68 62.1276C210.03 61.7326 206.362 61.5228 202.691 61.4991L192.547 49.4529Z" fill="#E6E6E6"/>
<path d="M212.835 140.116C212.835 140.116 173.527 147.091 158.944 132.508C158.944 132.508 157.464 135.022 155.233 139.19C154.592 140.388 153.353 141.201 152.604 142.652C151.924 143.972 150.175 145.594 149.434 147.091C148.838 148.295 149.794 149.869 149.174 151.169C141.706 166.833 132.981 188.928 134.852 203.518C136.058 212.926 138.55 234.82 141.173 258.334C141.378 260.171 139.718 262.531 139.924 264.383C140.118 266.129 142.179 267.367 142.374 269.117C142.503 270.279 141.063 271.464 141.192 272.625C141.333 273.899 143.042 275.147 143.183 276.415C146.777 308.884 150.068 339.196 150.068 339.196H168.455L171.924 269.965L169.089 244.729L175.746 193.691L184.939 242.193L186.122 269.49L195.837 340.465H212.835V271.757L214.104 268.187L212.835 263.609L214.104 258.677L212.835 253.305V140.116Z" fill="#2F2E41"/>
<path d="M197.51 40.0773C195.005 43.4041 191.442 45.7788 187.408 46.8103C183.374 47.8418 179.109 47.4686 175.315 45.7522C171.521 44.0358 168.425 41.0785 166.536 37.3674C164.647 33.6562 164.079 29.4125 164.924 25.3351C165.769 21.2578 167.978 17.5899 171.187 14.9355C174.395 12.2811 178.412 10.7985 182.575 10.7318C186.739 10.6652 190.801 12.0185 194.093 14.5689C197.384 17.1193 199.709 20.7146 200.685 24.7629C200.737 24.9825 200.782 25.2009 200.825 25.4277C201.34 27.9651 201.311 30.583 200.739 33.1083C200.168 35.6336 199.067 38.009 197.51 40.0773Z" fill="#FFB6B6"/>
<path d="M193.688 29.6209C193.3 27.6697 192.316 25.8868 190.873 24.5171C191.016 26.3868 190.756 28.2654 190.113 30.0267C185.293 30.4535 180.451 29.4944 176.158 27.2624C172.925 25.0687 168.81 25.2589 164.017 27.2624C164.016 24.931 164.475 22.6225 165.367 20.4685C166.259 18.3146 167.567 16.3574 169.215 14.7089C170.864 13.0604 172.821 11.7528 174.975 10.8607C177.129 9.96871 179.438 9.50972 181.769 9.51001H184.939C189.647 9.51087 194.162 11.3815 197.491 14.7105C200.82 18.0395 202.691 22.5544 202.691 27.2624C199.766 28.3118 196.753 29.101 193.688 29.6209Z" fill="#2F2E41"/>
<path d="M55 255.881C83.1665 255.881 106 233.048 106 204.881C106 176.715 83.1665 153.881 55 153.881C26.8335 153.881 4 176.715 4 204.881C4 233.048 26.8335 255.881 55 255.881Z" fill="white"/>
<path d="M185.831 190.284H52.0439C50.144 190.279 48.3233 189.523 46.9798 188.179C45.6362 186.836 44.8792 185.015 44.874 183.115V117.926C44.8789 116.026 45.6357 114.206 46.9791 112.862C48.3224 111.519 50.1431 110.761 52.043 110.756H185.83C187.73 110.761 189.551 111.518 190.894 112.861C192.238 114.205 192.995 116.025 193 117.925V183.114C192.995 185.014 192.238 186.835 190.895 188.178C189.552 189.522 187.731 190.279 185.831 190.284Z" fill="white"/>
<path d="M185.831 190.284H52.0439C50.144 190.279 48.3233 189.523 46.9798 188.179C45.6362 186.836 44.8792 185.015 44.874 183.115V117.926C44.8789 116.026 45.6357 114.206 46.9791 112.862C48.3224 111.519 50.1431 110.761 52.043 110.756H185.83C187.73 110.761 189.551 111.518 190.894 112.861C192.238 114.205 192.995 116.025 193 117.925V183.114C192.995 185.014 192.238 186.835 190.895 188.178C189.552 189.522 187.731 190.279 185.831 190.284ZM52.0439 112.756C50.6739 112.76 49.3611 113.307 48.3924 114.275C47.4237 115.244 46.8778 116.557 46.874 117.927V183.114C46.878 184.484 47.4241 185.797 48.393 186.766C49.3619 187.735 50.6748 188.281 52.0449 188.284H185.829C187.199 188.28 188.512 187.734 189.481 186.766C190.45 185.797 190.996 184.484 191 183.113V117.926C190.996 116.556 190.45 115.243 189.481 114.275C188.512 113.306 187.199 112.76 185.829 112.756L52.0439 112.756Z" fill="#3F3D56"/>
<path d="M126.108 180.651C99.7221 180.651 72.209 180.398 61.9436 180.235C60.593 180.207 59.3068 179.652 58.3596 178.689C57.4124 177.726 56.8792 176.431 56.874 175.08V121.118C56.8745 120.634 57.0666 120.17 57.4083 119.828C57.7499 119.486 58.2133 119.292 58.697 119.291H179.173C179.656 119.291 180.12 119.483 180.463 119.825C180.805 120.166 180.998 120.63 181 121.113V157.725C180.977 163.702 178.613 169.431 174.415 173.685C170.217 177.938 164.519 180.377 158.543 180.477C148.976 180.602 137.647 180.651 126.108 180.651Z" fill="#D3C9BF"/>
<path d="M172.021 154.361H63.1621C62.2506 154.359 61.362 154.076 60.617 153.551C59.872 153.025 59.3067 152.283 58.9981 151.426L46.6768 116.859C46.4393 116.193 46.3653 115.479 46.461 114.778C46.5567 114.076 46.8192 113.408 47.2265 112.83C47.6339 112.251 48.1742 111.778 48.802 111.452C49.4298 111.125 50.1268 110.954 50.8345 110.953L186.907 110.763C187.554 110.763 188.193 110.904 188.779 111.177C189.365 111.45 189.885 111.848 190.3 112.344C190.716 112.84 191.018 113.42 191.185 114.045C191.352 114.67 191.379 115.324 191.266 115.961L191.371 116.005L190.98 116.917L190.977 116.926L176.082 151.682C175.742 152.477 175.176 153.156 174.454 153.632C173.733 154.108 172.886 154.362 172.021 154.361ZM186.913 112.763L50.8384 112.953C50.4507 112.953 50.0689 113.047 49.7249 113.226C49.381 113.405 49.085 113.664 48.8618 113.981C48.6386 114.298 48.4948 114.663 48.4424 115.048C48.39 115.432 48.4305 115.823 48.5606 116.188L60.8814 150.753C61.0507 151.223 61.3606 151.629 61.7689 151.917C62.1772 152.205 62.6641 152.36 63.1636 152.361H172.021C172.495 152.362 172.958 152.223 173.353 151.962C173.748 151.701 174.058 151.33 174.243 150.895L189.139 116.138L189.871 116.452L189.139 116.138C189.297 115.77 189.361 115.368 189.325 114.969C189.289 114.57 189.155 114.186 188.935 113.851C188.714 113.517 188.414 113.242 188.061 113.052C187.708 112.863 187.314 112.763 186.913 112.763Z" fill="#3F3D56"/>
<path d="M118.734 161.885C123.442 161.885 127.258 158.069 127.258 153.361C127.258 148.654 123.442 144.837 118.734 144.837C114.026 144.837 110.21 148.654 110.21 153.361C110.21 158.069 114.026 161.885 118.734 161.885Z" fill="white"/>
<path d="M225.516 110.196L225.542 77.3335L206.225 79.0598L213.042 99.7862L188.295 137.3C186.748 137.648 185.335 138.438 184.228 139.574C183.122 140.711 182.37 142.144 182.065 143.701C181.759 145.257 181.913 146.868 182.508 148.339C183.103 149.809 184.112 151.075 185.414 151.981C186.715 152.888 188.252 153.396 189.837 153.444C191.422 153.492 192.987 153.078 194.341 152.252C195.695 151.425 196.78 150.223 197.462 148.792C198.144 147.36 198.396 145.761 198.185 144.189L225.516 110.196Z" fill="#FFB6B6"/>
</g>
<defs>
<filter id="filter0_d_12_1853" x="0" y="0" width="230" height="375.46" filterUnits="userSpaceOnUse" color-interpolation-filters="sRGB">
<feFlood flood-opacity="0" result="BackgroundImageFix"/>
<feColorMatrix in="SourceAlpha" type="matrix" values="0 0 0 0 0 0 0 0 0 0 0 0 0 0 0 0 0 0 127 0" result="hardAlpha"/>
<feOffset dy="4"/>
<feGaussianBlur stdDeviation="2"/>
<feComposite in2="hardAlpha" operator="out"/>
<feColorMatrix type="matrix" values="0 0 0 0 0 0 0 0 0 0 0 0 0 0 0 0 0 0 0.25 0"/>
<feBlend mode="normal" in2="BackgroundImageFix" result="effect1_dropShadow_12_1853"/>
<feBlend mode="normal" in="SourceGraphic" in2="effect1_dropShadow_12_1853" result="shape"/>
</filter>
</defs>
</svg>
