<svg width="413" height="491" viewBox="0 0 413 491" fill="none" xmlns="http://www.w3.org/2000/svg">
<g clip-path="url(#clip0_12_397)">
<path d="M159.959 402.994C151.741 394.539 139.832 389.69 127.286 389.69L126.802 389.692C118.538 389.695 110.422 387.508 103.283 383.355L102.54 382.924L103.138 382.309C106.377 378.965 109.082 375.145 111.158 370.982C109.684 372.353 107.925 373.384 106.008 374.002C104.09 374.62 102.059 374.81 100.06 374.559C97.949 374.307 95.9224 373.583 94.1322 372.439C92.342 371.295 90.8347 369.762 89.7234 367.954C85.3384 360.856 80.1113 350.785 80.1113 343.112C80.1182 336.627 81.4793 330.215 84.1079 324.284C86.7365 318.353 90.575 313.033 95.3787 308.664C98.4198 305.928 100.849 302.584 102.508 298.849C104.166 295.114 105.017 291.072 105.005 286.987L105.003 286.406C105.002 281.028 105.661 275.67 106.964 270.451L107.097 269.924L107.64 269.943C111.145 270.062 114.652 269.769 118.088 269.07C114.865 268.675 111.712 267.839 108.718 266.584L108.134 266.348L108.332 265.75C122.01 257.301 152.886 261.677 170.807 220.772C185.339 187.605 236.611 250.215 236.611 286.406C236.611 290.099 232.948 294.979 235.69 297.419C265.336 323.804 244.881 340.747 238.432 357.795C236.901 361.84 240.219 366.281 240.219 370.657C240.219 371.4 240.2 372.166 240.163 372.935L240.106 374.118L239.117 373.462C237.162 372.184 235.349 370.7 233.71 369.037C235.41 372.94 236.212 377.174 236.055 381.427C235.898 385.679 234.788 389.843 232.805 393.611C229.699 399.461 226.693 403.649 223.872 406.057C214.835 413.772 203.186 417.752 191.306 417.182C179.426 416.613 168.212 411.537 159.959 402.994H159.959Z" fill="#E6E6E6"/>
<path d="M209.592 491C209.794 491 209.989 490.927 210.141 490.795C210.294 490.663 210.394 490.48 210.422 490.28C210.458 490.03 213.952 464.89 210.814 431.477C207.916 400.619 198.608 356.173 170.727 319.67C170.661 319.583 170.577 319.509 170.482 319.454C170.387 319.398 170.281 319.362 170.172 319.347C170.062 319.332 169.951 319.339 169.845 319.367C169.738 319.395 169.638 319.444 169.55 319.511C169.462 319.578 169.388 319.661 169.333 319.756C169.278 319.851 169.241 319.956 169.227 320.066C169.212 320.175 169.219 320.286 169.247 320.392C169.276 320.498 169.325 320.598 169.392 320.686C197.032 356.873 206.264 400.993 209.142 431.633C212.262 464.851 208.795 489.796 208.759 490.044C208.743 490.163 208.751 490.284 208.786 490.399C208.82 490.514 208.878 490.621 208.957 490.711C209.036 490.802 209.134 490.875 209.243 490.924C209.353 490.974 209.471 491 209.592 491V491Z" fill="#3F3D56"/>
<path d="M186.839 371.159C187.017 371.159 187.19 371.103 187.333 370.999C187.477 370.896 187.584 370.749 187.639 370.581C187.693 370.412 187.693 370.231 187.639 370.063C187.584 369.895 187.477 369.748 187.334 369.644C179.389 364.279 170.807 359.921 161.785 356.669C147.689 351.521 126.254 346.854 104.187 353.86C104.082 353.893 103.984 353.947 103.899 354.018C103.815 354.088 103.745 354.175 103.694 354.273C103.644 354.371 103.613 354.478 103.603 354.587C103.594 354.697 103.606 354.808 103.64 354.913C103.673 355.018 103.727 355.115 103.798 355.199C103.87 355.283 103.957 355.353 104.055 355.403C104.153 355.454 104.26 355.484 104.37 355.493C104.48 355.502 104.591 355.49 104.696 355.456C126.311 348.594 147.357 353.184 161.207 358.242C170.085 361.439 178.529 365.724 186.346 370.999C186.49 371.103 186.662 371.159 186.839 371.159Z" fill="#3F3D56"/>
<path d="M225.27 275.671C225.283 275.495 225.24 275.319 225.146 275.169C225.053 275.018 224.914 274.901 224.749 274.835C224.585 274.768 224.404 274.755 224.232 274.797C224.059 274.84 223.905 274.935 223.791 275.071C217.855 282.589 212.88 290.815 208.979 299.558C202.816 313.213 196.607 334.205 202.022 356.666C202.048 356.773 202.094 356.874 202.159 356.963C202.224 357.052 202.306 357.128 202.4 357.185C202.494 357.243 202.599 357.281 202.708 357.298C202.816 357.316 202.928 357.311 203.035 357.286C203.142 357.26 203.244 357.213 203.333 357.148C203.422 357.084 203.498 357.002 203.555 356.908C203.613 356.814 203.651 356.71 203.668 356.601C203.685 356.492 203.681 356.381 203.655 356.274C198.351 334.273 204.455 313.662 210.51 300.246C214.345 291.643 219.237 283.549 225.075 276.15C225.189 276.016 225.257 275.848 225.27 275.671Z" fill="#3F3D56"/>
<path d="M387.232 490.113H320.388L320.101 489.593C319.246 488.047 318.421 486.408 317.65 484.725C310.764 470.019 307.854 453.201 305.286 438.362L303.353 427.177C303.118 425.822 303.295 424.429 303.859 423.175C304.424 421.921 305.35 420.863 306.52 420.138C307.691 419.412 309.052 419.051 310.428 419.102C311.805 419.152 313.136 419.611 314.25 420.421C324.408 427.795 334.571 435.162 344.737 442.522C348.587 445.316 352.983 448.55 357.193 452.045C357.6 450.077 358.024 448.102 358.449 446.156C358.742 444.812 359.431 443.586 360.426 442.634C361.422 441.683 362.68 441.049 364.038 440.815C365.397 440.581 366.795 440.756 368.053 441.319C369.311 441.882 370.372 442.806 371.1 443.974L378.921 456.509C384.625 465.663 389.66 474.684 388.634 484.413C388.639 484.531 388.63 484.65 388.607 484.766C388.402 486.364 388.022 487.935 387.472 489.45L387.232 490.113Z" fill="#F0F0F0"/>
<path d="M356.09 227.951L343.19 180.317C342.637 178.301 341.312 176.582 339.5 175.531C337.689 174.481 335.535 174.183 333.506 174.703C332.456 174.971 331.471 175.451 330.613 176.111C329.755 176.771 329.04 177.599 328.513 178.544C327.986 179.489 327.657 180.532 327.547 181.607C327.437 182.683 327.547 183.77 327.872 184.802L342.793 233.872L350.599 264.071C349.462 264.937 348.62 266.131 348.187 267.491C347.754 268.851 347.752 270.312 348.18 271.673C348.607 273.035 349.445 274.232 350.579 275.103C351.713 275.973 353.088 276.474 354.517 276.538C355.946 276.601 357.36 276.224 358.567 275.458C359.774 274.692 360.715 273.574 361.263 272.256C361.811 270.937 361.938 269.483 361.629 268.09C361.319 266.696 360.587 265.432 359.532 264.468L356.09 227.951Z" fill="#A0616A"/>
<path d="M247.535 217.692L286.732 187.599C288.389 186.319 289.475 184.441 289.756 182.369C290.036 180.298 289.49 178.199 288.233 176.526C287.583 175.661 286.763 174.936 285.823 174.397C284.883 173.858 283.843 173.516 282.767 173.391C281.69 173.266 280.599 173.361 279.56 173.671C278.521 173.98 277.557 174.497 276.725 175.191L236.97 207.696L211.978 226.431C210.742 225.714 209.313 225.393 207.888 225.514C206.463 225.635 205.109 226.19 204.011 227.105C202.913 228.02 202.124 229.249 201.751 230.627C201.378 232.005 201.439 233.464 201.926 234.806C202.413 236.147 203.303 237.307 204.474 238.127C205.644 238.947 207.04 239.388 208.47 239.389C209.901 239.39 211.297 238.952 212.469 238.134C213.642 237.316 214.533 236.158 215.023 234.817L247.535 217.692Z" fill="#A0616A"/>
<path d="M279.482 224.61L277.755 263.105L332.004 251.343C327.386 235.875 324.247 233.236 327.716 222.472L279.482 224.61Z" fill="#A0616A"/>
<path d="M312.839 154.039H294.763L287 167.29L283.301 167.087C281.492 166.987 279.682 167.257 277.98 167.879C276.279 168.501 274.723 169.462 273.407 170.705C272.091 171.947 271.043 173.444 270.326 175.104C269.61 176.765 269.24 178.553 269.24 180.361L273.798 187.408C273.798 187.408 265.647 201.578 277.388 208.55C277.388 208.55 275.294 221.685 277.388 221.544C279.482 221.402 284.306 218.729 279.482 221.402C274.659 224.076 275.019 224.435 275.643 225.057L276.267 225.68L326.985 234.175C326.985 234.175 328.469 224.367 328.628 222.617C328.788 220.868 327.716 225.145 328.788 220.868C329.86 216.591 331.468 218.194 329.86 216.591C328.252 214.987 340.278 195.115 335.337 187.408L343.259 179.7C343.259 172.306 331.355 166.312 323.944 166.312H322.994L312.839 154.039Z" fill="#E6E6E6"/>
<path d="M269.287 475.273H261.97L258.49 447.12L269.287 447.121L269.287 475.273Z" fill="#A0616A"/>
<path d="M247.204 486.042C247.208 486.859 247.534 487.643 248.113 488.221C248.692 488.8 249.477 489.127 250.296 489.133H264.069L264.496 488.25L266.444 484.24L267.198 488.25L267.365 489.133H272.56L272.486 488.244L271.1 471.673L269.288 471.562L261.459 471.099L259.536 470.982V475.93C258.076 477.478 246.623 483.333 247.204 486.042Z" fill="#2F2E41"/>
<path d="M378.02 456.155L371.867 460.104L353.671 438.306L362.753 432.479L378.02 456.155Z" fill="#A0616A"/>
<path d="M365.289 477.13C365.735 477.816 366.435 478.298 367.235 478.473C368.036 478.647 368.873 478.499 369.566 478.061L381.148 470.627L381.029 469.655L380.492 465.231L383.302 468.196L383.921 468.848L388.289 466.044L387.745 465.337L377.593 452.148L376.009 453.033L369.173 456.87L367.492 457.809L370.176 461.97C369.788 464.061 363.331 475.166 365.289 477.13Z" fill="#2F2E41"/>
<path d="M412.149 490.627L185.602 490.848C185.376 490.847 185.159 490.756 185 490.596C184.84 490.436 184.751 490.22 184.751 489.994C184.751 489.769 184.84 489.552 185 489.393C185.159 489.233 185.376 489.142 185.602 489.141L412.149 488.921C412.375 488.922 412.592 489.012 412.751 489.172C412.911 489.332 413 489.549 413 489.774C413 490 412.911 490.216 412.751 490.376C412.592 490.536 412.375 490.626 412.149 490.627Z" fill="#CACACA"/>
<path d="M331.154 246.994C331.154 246.994 296.477 265.293 278.135 252.808C278.135 252.808 274.123 272.194 272.515 273.798C270.907 275.402 268.346 276.101 270.163 277.89C271.979 279.679 272.99 282.096 269.537 285.165C266.084 288.234 262.64 287.26 265.97 290.42C269.3 293.58 255.901 371.104 255.901 371.104C255.901 371.104 258.045 443.198 255.901 445.379C253.757 447.559 250.892 448.047 253.665 450.744C256.437 453.44 256.437 451.349 256.437 455.068V458.787L257.706 462.483H275.107C275.107 462.483 279.306 457.617 275.107 453.39C270.907 449.163 276.385 448.007 277.666 444.04C278.946 440.074 281.09 444.351 278.946 440.074C276.803 435.797 275.773 436.611 275.752 433.798C275.731 430.985 307.351 320.847 307.351 320.847L311.181 381.807L357.247 448.568L370.806 438.423C370.806 438.423 360.934 424.559 363.243 422.653C365.551 420.747 356.439 418.357 359.312 416.207C362.186 414.057 355.268 411.89 357.875 409.04C360.482 406.19 354.284 399.007 350.692 399.007C347.1 399.007 342.059 387.033 342.059 387.033L349.584 292.439L331.154 246.994Z" fill="#2F2E41"/>
<path d="M294.399 115.128C294.154 115.449 292.199 115.276 289.848 114.934C285.199 114.257 284.565 115.061 281.09 118.215C276.056 122.783 278.918 150.646 276.444 156.683L275.645 157.27C277.23 156.968 278.787 156.534 280.299 155.971C281.154 153.283 282.01 150.585 282.872 147.899C283.686 149.989 284.198 152.184 284.392 154.418C285.589 153.948 286.778 152.797 291.779 151.253C294.296 149.549 312.512 147.836 314.854 147.086C320.797 126.913 311.22 118.755 294.399 115.128Z" fill="#2F2E41"/>
<path d="M300.55 146.235C310.163 146.235 317.957 138.46 317.957 128.87C317.957 119.279 310.163 111.504 300.55 111.504C290.936 111.504 283.142 119.279 283.142 128.87C283.142 138.46 290.936 146.235 300.55 146.235Z" fill="#A0616A"/>
<path d="M311.509 113.598C310.528 113.453 309.584 113.123 308.727 112.625C308.302 112.369 307.958 111.999 307.734 111.557C307.51 111.116 307.415 110.62 307.46 110.127C307.675 108.893 309.073 108.157 310.326 108.232C311.574 108.411 312.759 108.89 313.78 109.626C313.668 108.434 313.158 107.314 312.33 106.446C311.503 105.578 310.408 105.012 309.22 104.84C310.868 104.751 312.581 104.673 314.105 105.306C315.629 105.938 316.899 107.504 316.624 109.127C319.186 108.798 321.712 110.579 322.77 112.93C323.828 115.281 323.618 118.042 322.773 120.477C322.69 120.85 322.527 121.2 322.296 121.505C322.065 121.81 321.771 122.061 321.434 122.243C320.571 122.569 319.644 122.022 318.896 121.482C314.994 118.663 311.442 115.391 308.315 111.734" fill="#2F2E41"/>
<path d="M319.099 147.332C318.361 147.679 318.745 148.968 318.172 149.545C317.923 149.79 317.622 149.976 317.293 150.091C317.206 149.015 316.955 147.958 316.548 146.958C316.473 146.776 316.349 146.573 316.156 146.589C315.931 146.616 315.872 146.91 315.867 147.129C315.822 148.216 315.58 149.287 315.154 150.289C315.149 150.299 315.143 150.315 315.138 150.326C314.972 150.321 314.8 150.315 314.64 150.31C313.396 150.262 310.642 147.075 310.031 148.155C312.185 144.343 314.811 138.612 315.213 134.254C315.352 133.342 315.285 132.41 315.015 131.528C314.874 131.089 314.61 130.699 314.253 130.405C313.897 130.111 313.464 129.926 313.005 129.87C312.779 129.86 312.553 129.9 312.344 129.987C312.135 130.074 311.947 130.206 311.795 130.373C311.643 130.541 311.53 130.74 311.464 130.956C311.398 131.172 311.381 131.4 311.413 131.624L311.103 131.581C308.219 129.239 310.706 125.171 307.351 123.561C306.215 123.016 299.258 124.839 298.031 124.518C298.005 123.229 297.741 121.955 297.254 120.76C297.179 120.578 297.056 120.375 296.863 120.391C296.638 120.418 296.579 120.712 296.573 120.931C296.528 122.018 296.286 123.089 295.861 124.091C294.16 123.85 292.429 123.941 290.764 124.358C289.295 124.743 287.902 125.406 286.428 125.759C285.7 125.982 284.933 126.054 284.176 125.971C283.418 125.888 282.686 125.652 282.023 125.278C280.152 124.027 279.825 121.257 280.758 119.215C281.433 117.904 282.345 116.73 283.448 115.75C284.29 114.938 285.163 114.157 286.037 113.376C286.819 112.676 287.602 111.976 288.384 111.275C289.369 110.35 290.419 109.496 291.525 108.72C293.291 107.565 295.275 106.782 297.355 106.42C299.435 106.058 301.567 106.123 303.621 106.613C306.086 107.201 309.382 106.372 311.638 107.522C312.818 108.126 315.428 110.441 316.462 111.264C319.109 113.366 317.318 111.654 320.213 112.868C327.118 115.765 324.065 145 319.099 147.332Z" fill="#2F2E41"/>
<path d="M126.361 274.081C185.982 274.081 234.314 225.865 234.314 166.387C234.314 106.909 185.982 58.6927 126.361 58.6927C66.7402 58.6927 18.408 106.909 18.408 166.387C18.408 225.865 66.7402 274.081 126.361 274.081Z" fill="white"/>
<path d="M126.361 275.156C66.2413 275.156 17.3303 226.362 17.3303 166.387C17.3303 106.411 66.2413 57.6176 126.361 57.6176C186.48 57.6176 235.391 106.411 235.391 166.387C235.391 226.362 186.48 275.156 126.361 275.156ZM126.361 59.7676C67.4297 59.7676 19.4855 107.597 19.4855 166.387C19.4855 225.177 67.4297 273.006 126.361 273.006C185.292 273.006 233.236 225.177 233.236 166.387C233.236 107.597 185.292 59.7676 126.361 59.7676Z" fill="#6C63FF"/>
<path d="M111.634 222.437C109.77 222.437 107.931 222.004 106.264 221.172C104.596 220.34 103.146 219.132 102.028 217.644L72.5769 178.469C71.6308 177.211 70.9424 175.778 70.5511 174.254C70.1598 172.731 70.0732 171.145 70.2963 169.587C70.5193 168.03 71.0477 166.532 71.8512 165.178C72.6546 163.825 73.7175 162.642 74.9791 161.698C76.2406 160.754 77.6762 160.068 79.2038 159.677C80.7314 159.287 82.3211 159.201 83.8821 159.423C85.4432 159.646 86.945 160.173 88.3019 160.974C89.6588 161.776 90.8441 162.836 91.7902 164.095L111.058 189.722L160.546 115.67C162.313 113.028 165.06 111.195 168.182 110.573C171.304 109.951 174.545 110.592 177.194 112.353C179.843 114.115 181.682 116.854 182.308 119.968C182.933 123.082 182.293 126.316 180.529 128.96L121.626 217.102C120.561 218.696 119.128 220.012 117.447 220.939C115.767 221.867 113.888 222.379 111.968 222.433C111.857 222.435 111.745 222.437 111.634 222.437Z" fill="#6A5272"/>
<path d="M237.584 65.4214C237.884 63.3624 235.723 61.3442 232.756 60.9136C229.789 60.483 227.14 61.803 226.84 63.8619C226.54 65.9209 228.702 67.9391 231.668 68.3698C234.635 68.8004 237.284 67.4804 237.584 65.4214Z" fill="#E6E6E6"/>
<path d="M272.908 61.983C273.208 59.924 271.046 57.9058 268.079 57.4752C265.112 57.0445 262.464 58.3645 262.164 60.4235C261.863 62.4825 264.025 64.5007 266.992 64.9313C269.959 65.3619 272.607 64.0419 272.908 61.983Z" fill="#3F3D56"/>
<path d="M227.911 36.8926C228.211 34.8337 226.05 32.8155 223.083 32.3848C220.116 31.9542 217.467 33.2742 217.167 35.3332C216.867 37.3921 219.028 39.4104 221.995 39.841C224.962 40.2716 227.611 38.9516 227.911 36.8926Z" fill="#FF6584"/>
<path d="M212.562 25.2067C212.576 23.3165 211.52 21.7761 210.201 21.7661C208.883 21.7562 207.803 23.2805 207.789 25.1707C207.775 27.0609 208.831 28.6013 210.15 28.6112C211.468 28.6211 212.548 27.0969 212.562 25.2067Z" fill="#E6E6E6"/>
<path d="M207.357 3.44057C207.371 1.55036 206.314 0.00997901 204.996 3.58095e-05C203.678 -0.0099074 202.598 1.51436 202.584 3.40457C202.569 5.29478 203.626 6.83516 204.944 6.84511C206.263 6.85505 207.343 5.33079 207.357 3.44057Z" fill="#3F3D56"/>
<path d="M247.834 41.7474C247.849 39.8572 246.792 38.3168 245.474 38.3068C244.156 38.2969 243.075 39.8212 243.061 41.7114C243.047 43.6016 244.104 45.142 245.422 45.1519C246.74 45.1619 247.82 43.6376 247.834 41.7474Z" fill="#E6E6E6"/>
<path d="M230.764 50.2499C230.779 48.3596 229.722 46.8193 228.404 46.8093C227.085 46.7994 226.005 48.3236 225.991 50.2138C225.977 52.1041 227.034 53.6444 228.352 53.6543C229.67 53.6643 230.75 52.1401 230.764 50.2499Z" fill="#FF6584"/>
<path d="M254.526 65.9646C254.541 64.0743 253.484 62.534 252.166 62.524C250.848 62.5141 249.768 64.0383 249.753 65.9286C249.739 67.8188 250.796 69.3591 252.114 69.369C253.432 69.379 254.512 67.8548 254.526 65.9646Z" fill="#3F3D56"/>
<path d="M35.0004 320.552C35.3007 318.493 33.139 316.475 30.1721 316.044C27.2052 315.614 24.5567 316.934 24.2564 318.993C23.9561 321.052 26.1178 323.07 29.0846 323.5C32.0515 323.931 34.7001 322.611 35.0004 320.552Z" fill="#E6E6E6"/>
<path d="M70.3243 317.113C70.6246 315.055 68.4629 313.036 65.4961 312.606C62.5292 312.175 59.8806 313.495 59.5803 315.554C59.2801 317.613 61.4417 319.631 64.4086 320.062C67.3755 320.492 70.024 319.172 70.3243 317.113Z" fill="#3F3D56"/>
<path d="M25.3278 292.023C25.6281 289.964 23.4664 287.946 20.4995 287.515C17.5326 287.085 14.8841 288.405 14.5838 290.464C14.2835 292.523 16.4452 294.541 19.412 294.972C22.3789 295.402 25.0275 294.082 25.3278 292.023Z" fill="#FF6584"/>
<path d="M9.97862 280.337C9.99295 278.447 8.93605 276.907 7.61796 276.897C6.29987 276.887 5.21971 278.411 5.20539 280.301C5.19106 282.192 6.24798 283.732 7.56607 283.742C8.88416 283.752 9.9643 282.228 9.97862 280.337Z" fill="#E6E6E6"/>
<path d="M4.77328 258.571C4.78761 256.681 3.7307 255.141 2.41261 255.131C1.09453 255.121 0.0143915 256.645 6.37678e-05 258.535C-0.014264 260.425 1.04264 261.966 2.36073 261.976C3.67882 261.986 4.75895 260.461 4.77328 258.571Z" fill="#3F3D56"/>
<path d="M45.2508 296.878C45.2651 294.988 44.2082 293.447 42.8901 293.438C41.572 293.428 40.4919 294.952 40.4776 296.842C40.4633 298.732 41.5202 300.273 42.8382 300.283C44.1563 300.293 45.2365 298.768 45.2508 296.878Z" fill="#E6E6E6"/>
<path d="M28.1808 305.381C28.1951 303.49 27.1382 301.95 25.8201 301.94C24.502 301.93 23.4219 303.454 23.4075 305.344C23.3932 307.235 24.4501 308.775 25.7682 308.785C27.0863 308.795 28.1665 307.271 28.1808 305.381Z" fill="#FF6584"/>
<path d="M51.9427 321.095C51.957 319.205 50.9001 317.665 49.582 317.655C48.2639 317.645 47.1838 319.169 47.1695 321.059C47.1552 322.949 48.2121 324.49 49.5301 324.5C50.8482 324.51 51.9284 322.985 51.9427 321.095Z" fill="#3F3D56"/>
</g>
<defs>
<clipPath id="clip0_12_397">
<rect width="413" height="491" fill="white"/>
</clipPath>
</defs>
</svg>
